<?xml version="1.0" encoding="UTF-8" standalone="no"?>
<svg width="306px" height="225px" viewBox="0 0 306 225" version="1.1" xmlns="http://www.w3.org/2000/svg" xmlns:xlink="http://www.w3.org/1999/xlink">
    <!-- Generator: Sketch 3.6.1 (26313) - http://www.bohemiancoding.com/sketch -->
    <title>logo-ardora-outline</title>
    <desc>Created with Sketch.</desc>
    <defs></defs>
    <g id="Page-1" stroke="none" stroke-width="1" fill="none" fill-rule="evenodd">
        <path d="M34.7307692,181.846154 C40.4404047,181.846154 77.0224985,167.394907 77.0224985,167.394907 L116.7423,143.723595 C116.7423,143.723595 172.941594,141.140739 172.941594,134.055627 C172.941594,120.975081 103.047281,129.040289 63.7994666,129.897724 C50.4657461,130.189022 39.1746433,118.384615 34.7307692,118.384615 C17.2063493,118.384615 3,132.590965 3,150.115385 C3,167.639805 17.2063493,181.846154 34.7307692,181.846154 Z M78,106.846154 C95.3076923,101.076923 107.188745,95.3076923 147.230769,95.3076923 C151.355442,95.3076923 165.065683,83.3343902 181.846154,78 C203.435307,71.1369648 243.922195,84.7609527 241.337112,75.8319717 C229.156612,33.7600378 190.343579,3 144.346154,3 C88.5866358,3 43.3846154,48.2020205 43.3846154,103.961538 C43.3846154,119.679032 60.6923077,112.615385 78,106.846154 Z M73.5359812,193.235583 C80.0445037,199.64019 87.4177978,205.168617 95.4647301,209.62973 C101.971513,213.237005 108.918747,216.146427 116.205383,218.256944 C125.137672,220.844113 134.579977,222.230769 144.346154,222.230769 C190.35629,222.230769 229.178064,191.453728 241.347204,149.363915 C242.503223,145.365552 191.607082,157.490309 191.607082,157.490309 C191.607082,157.490309 121.170636,161.167397 121.170636,163.856746 C121.170636,192.030553 54.9247503,174.921501 73.5359812,193.235583 Z M191.635329,118.938341 C199.21105,121.781772 202.358972,125.549101 211.456394,128.791099 C222.159385,132.605264 238.881121,135.692308 248.192308,135.692308 C278.46176,135.692308 303,126.651904 303,115.5 C303,104.348096 278.46176,95.3076923 248.192308,95.3076923 C217.922855,95.3076923 170.307692,98.5788656 170.307692,109.730769 C170.307692,114.536403 175.146875,112.749651 191.635329,118.938341 Z" id="logo-ardora-outline" stroke="#FFFFFF" stroke-width="5"></path>
    </g>
</svg>