<?xml version="1.0" encoding="UTF-8" standalone="no"?>
<svg width="76px" height="56px" viewBox="0 0 76 56" version="1.1" xmlns="http://www.w3.org/2000/svg" xmlns:xlink="http://www.w3.org/1999/xlink">
    <!-- Generator: Sketch 3.6.1 (26313) - http://www.bohemiancoding.com/sketch -->
    <title>logo-ardora-active</title>
    <desc>Created with Sketch.</desc>
    <defs></defs>
    <g id="Page-1" stroke="none" stroke-width="1" fill="none" fill-rule="evenodd">
        <path d="M8.82692308,45.1153846 C10.2352998,45.1153846 19.258883,41.5507437 19.258883,41.5507437 L29.056434,35.7118202 C29.056434,35.7118202 42.9189265,35.0747156 42.9189265,33.3270545 C42.9189265,30.1005199 25.6783292,32.0899379 15.9972018,32.3014386 C12.7082174,32.3732921 9.92307868,29.4615385 8.82692308,29.4615385 C4.50423282,29.4615385 1,32.9657713 1,37.2884615 C1,41.6111518 4.50423282,45.1153846 8.82692308,45.1153846 Z M19.5,26.6153846 C23.7692308,25.1923077 26.6998904,23.7692308 36.5769231,23.7692308 C37.5943423,23.7692308 40.9762017,20.8158162 45.1153846,19.5 C50.4407089,17.807118 60.4274747,21.1677017 59.7898209,18.9652197 C56.7852976,8.58747599 47.2114161,1 35.8653846,1 C22.1113702,1 10.9615385,12.1498317 10.9615385,25.9038462 C10.9615385,29.7808279 15.2307692,28.0384615 19.5,26.6153846 Z M18.3988754,47.9247772 C20.0043109,49.5045802 21.8230568,50.8682587 23.8079668,51.9686667 C25.4129731,52.8584612 27.1266244,53.5761186 28.9239944,54.0967129 C31.1272924,54.7348811 33.4563944,55.0769231 35.8653846,55.0769231 C47.2145516,55.0769231 56.790589,47.4852529 59.7923103,37.103099 C60.0774618,36.1168361 47.5230801,39.1076097 47.5230801,39.1076097 C47.5230801,39.1076097 30.1487568,40.0146245 30.1487568,40.6779973 C30.1487568,47.6275363 13.8081051,43.4073036 18.3988754,47.9247772 Z M47.5300477,29.598124 C49.3987257,30.2995038 50.1752131,31.2287783 52.4192438,32.028471 C55.059315,32.9692985 59.1840099,33.7307692 61.4807692,33.7307692 C68.9472342,33.7307692 75,31.5008029 75,28.75 C75,25.9991971 68.9472342,23.7692308 61.4807692,23.7692308 C54.0143042,23.7692308 42.2692308,24.5761202 42.2692308,27.3269231 C42.2692308,28.5123127 43.4628958,28.0715807 47.5300477,29.598124 Z" id="logo-ardora-active" stroke="#033D85" fill="#033D85"></path>
    </g>
</svg>